<svg xmlns="http://www.w3.org/2000/svg" viewBox="0 0 500 500"><g id="freepik--background-simple--inject-23"><path d="M282.11,74.77a229.06,229.06,0,0,0-130.45,38.8c-43.31,29.19-71.61,77.7-75.06,129.81-3,45.95,8.19,55.22,10,82.06,3.59,53.1,87.28,50,112.79,41.38s49.77-20.59,75.42-28.74c23.63-7.51,48.43-11.76,70.85-22.34a138.26,138.26,0,0,0,73.65-88.67c6.48-24.73,7.14-52.43-4.64-75.12-23.48-45.22-76-66.41-90.18-70.9C310.83,76.73,296.4,75,282.11,74.77Z" style="fill:#A855F7"></path><path d="M282.11,74.77a229.06,229.06,0,0,0-130.45,38.8c-43.31,29.19-71.61,77.7-75.06,129.81-3,45.95,8.19,55.22,10,82.06,3.59,53.1,87.28,50,112.79,41.38s49.77-20.59,75.42-28.74c23.63-7.51,48.43-11.76,70.85-22.34a138.26,138.26,0,0,0,73.65-88.67c6.48-24.73,7.14-52.43-4.64-75.12-23.48-45.22-76-66.41-90.18-70.9C310.83,76.73,296.4,75,282.11,74.77Z" style="fill:#fff;opacity:0.9"></path></g><g id="freepik--Shadows--inject-23"><g id="freepik--Shadow--inject-214--inject-23"><ellipse id="freepik--path--inject-214--inject-23" cx="250" cy="410.07" rx="193.89" ry="11.32" style="fill:#f5f5f5"></ellipse></g></g><g id="freepik--Desk--inject-23"><path d="M296.51,290.69h-6.24L280.28,409a2.27,2.27,0,0,0,2.26,2.46h0a2.27,2.27,0,0,0,2.25-2Z" style="fill:#263238"></path><path d="M296.51,290.69h-6.24L280.28,409a2.27,2.27,0,0,0,2.26,2.46h0a2.27,2.27,0,0,0,2.25-2Z" style="fill:#fff;opacity:0.1"></path><path d="M146.53,289.86h-6.25l-10,119.19a2.26,2.26,0,0,0,2.26,2.45h0a2.27,2.27,0,0,0,2.25-2Z" style="fill:#263238"></path><path d="M146.53,289.86h-6.25l-10,119.19a2.26,2.26,0,0,0,2.26,2.45h0a2.27,2.27,0,0,0,2.25-2Z" style="fill:#fff;opacity:0.1"></path><path d="M174.21,289.86h6.24l.18,119.55a2.27,2.27,0,0,1-2.27,2.27h0a2.28,2.28,0,0,1-2.27-2.24Z" style="fill:#263238"></path><path d="M174.21,289.86h6.24l.18,119.55a2.27,2.27,0,0,1-2.27,2.27h0a2.28,2.28,0,0,1-2.27-2.24Z" style="fill:#fff;opacity:0.2"></path><path d="M322.19,289.86h6.25l.18,119.55a2.27,2.27,0,0,1-2.27,2.27h0a2.28,2.28,0,0,1-2.27-2.24Z" style="fill:#263238"></path><path d="M328.44,289.86l.18,119.55a2.27,2.27,0,0,1-2.27,2.27h0a2.28,2.28,0,0,1-2.27-2.24l-1.89-119.58Z" style="fill:#fff;opacity:0.2"></path><polygon points="138.41 312.27 328.3 310.86 328.3 289.87 140.28 289.87 138.41 312.27" style="fill:#A855F7"></polygon><polygon points="174.21 290.02 174.56 312 138.41 312.27 140.28 289.87 174.21 290.02" style="opacity:0.30000000000000004"></polygon><path d="M335.63,284.82h0c0-2.82-1.06-5.11-2.36-5.12H137.45c-1.3,0-2.35,2.3-2.36,5.12h0c0,2.83,1.06,5.12,2.36,5.13H333.27C334.57,289.94,335.62,287.65,335.63,284.82Z" style="fill:#263238"></path><path d="M335.63,284.82h0c0-2.82-1.06-5.11-2.36-5.12H137.45c-1.3,0-2.35,2.3-2.36,5.12h0c0,2.83,1.06,5.12,2.36,5.13H333.27C334.57,289.94,335.62,287.65,335.63,284.82Z" style="fill:#fff;opacity:0.1"></path><path d="M185.64,284.82h0c0-2.82-1-5.11-2.35-5.12H137.45c-1.3,0-2.35,2.3-2.36,5.12h0c0,2.83,1.06,5.12,2.36,5.13h45.84C184.59,289.94,185.64,287.65,185.64,284.82Z" style="opacity:0.30000000000000004"></path></g><g id="freepik--Device--inject-23"><path d="M285.28,280.22H264.71l.47-2.23c2.2-5.91,13.44-5.91,13.44-5.91,2.79.16,5.51,2.77,6.29,6.42Z" style="fill:#A855F7"></path><path d="M228.2,276.92h20.66l2.46-21.6H232.56Z" style="fill:#263238"></path><path d="M224.55,279.66h1v.25h35v-3H228.2l4.36-21.6h18.76l1-9.16a2.34,2.34,0,0,0-2.34-2.24H233.94a2.37,2.37,0,0,0-2.35,2.24Z" style="fill:#263238"></path><polygon points="228.2 276.92 248.86 276.92 251.13 257.02 251.32 255.32 232.56 255.32 228.2 276.92" style="fill:#263238"></polygon><polygon points="250.46 262.51 251.32 255.32 229.67 255.32 228.16 262.51 250.46 262.51" style="opacity:0.1"></polygon><path d="M261,277.55h2.46a.44.44,0,0,0,.46-.42v-2.37a.44.44,0,0,0-.46-.43H261.7a.47.47,0,0,0-.45.32l-.69,2.37A.43.43,0,0,0,261,277.55Z" style="fill:#263238"></path><path d="M257.62,277.55h2.46a.45.45,0,0,0,.46-.42v-2.37a.45.45,0,0,0-.46-.43h-1.77a.47.47,0,0,0-.45.32l-.69,2.37A.43.43,0,0,0,257.62,277.55Z" style="fill:#263238"></path><path d="M254.23,277.55h2.45a.45.45,0,0,0,.47-.42v-2.37a.45.45,0,0,0-.47-.43h-1.76a.46.46,0,0,0-.45.32l-.69,2.37A.43.43,0,0,0,254.23,277.55Z" style="fill:#263238"></path><path d="M250.84,277.55h2.45a.45.45,0,0,0,.47-.42v-2.37a.45.45,0,0,0-.47-.43h-1.76a.46.46,0,0,0-.45.32l-.69,2.37A.43.43,0,0,0,250.84,277.55Z" style="fill:#263238"></path><path d="M247.45,277.55h2.45a.45.45,0,0,0,.47-.42v-2.37a.45.45,0,0,0-.47-.43h-1.76a.46.46,0,0,0-.45.32L247,277A.43.43,0,0,0,247.45,277.55Z" style="fill:#263238"></path><path d="M244.06,277.55h2.45a.45.45,0,0,0,.47-.42v-2.37a.45.45,0,0,0-.47-.43h-1.76a.46.46,0,0,0-.45.32l-.69,2.37A.43.43,0,0,0,244.06,277.55Z" style="fill:#263238"></path><path d="M240.67,277.55h2.45a.45.45,0,0,0,.47-.42v-2.37a.45.45,0,0,0-.47-.43h-1.76a.46.46,0,0,0-.45.32l-.7,2.37A.44.44,0,0,0,240.67,277.55Z" style="fill:#263238"></path><path d="M237.28,277.55h2.45a.45.45,0,0,0,.47-.42v-2.37a.45.45,0,0,0-.47-.43H238a.46.46,0,0,0-.45.32l-.7,2.37A.44.44,0,0,0,237.28,277.55Z" style="fill:#263238"></path><path d="M233.89,277.55h2.45a.45.45,0,0,0,.47-.42v-2.37a.45.45,0,0,0-.47-.43h-1.76a.46.46,0,0,0-.45.32l-.7,2.37A.44.44,0,0,0,233.89,277.55Z" style="fill:#263238"></path><path d="M230.49,277.55H233a.45.45,0,0,0,.47-.42v-2.37a.45.45,0,0,0-.47-.43h-1.76a.47.47,0,0,0-.46.32L230,277A.43.43,0,0,0,230.49,277.55Z" style="fill:#263238"></path><path d="M227.1,277.55h2.46a.45.45,0,0,0,.47-.42v-2.37a.45.45,0,0,0-.47-.43H227.8a.47.47,0,0,0-.46.32l-.69,2.37A.43.43,0,0,0,227.1,277.55Z" style="fill:#263238"></path><path d="M223.71,277.55h2.46a.45.45,0,0,0,.47-.42v-2.37a.45.45,0,0,0-.47-.43h-1.76a.47.47,0,0,0-.46.32l-.69,2.37A.43.43,0,0,0,223.71,277.55Z" style="fill:#263238"></path><path d="M220.32,277.55h2.46a.45.45,0,0,0,.46-.42v-2.37a.45.45,0,0,0-.46-.43H221a.47.47,0,0,0-.45.32l-.69,2.37A.43.43,0,0,0,220.32,277.55Z" style="fill:#263238"></path><path d="M216.93,277.55h2.46a.45.45,0,0,0,.46-.42v-2.37a.45.45,0,0,0-.46-.43h-1.77a.47.47,0,0,0-.45.32l-.69,2.37A.43.43,0,0,0,216.93,277.55Z" style="fill:#263238"></path><path d="M213.54,277.55H216a.45.45,0,0,0,.47-.42v-2.37a.45.45,0,0,0-.47-.43h-1.76a.46.46,0,0,0-.45.32l-.69,2.37A.43.43,0,0,0,213.54,277.55Z" style="fill:#263238"></path><path d="M211.07,277.81a2,2,0,0,0,2,1.86h50.77a2,2,0,0,0,2.05-1.86,1.76,1.76,0,0,0-.6-1.32,2.11,2.11,0,0,0-1.4-.54H213.11a2,2,0,0,0-.56.07A1.9,1.9,0,0,0,211.07,277.81Z" style="fill:#263238"></path><path d="M211.07,277.81a2,2,0,0,0,2,1.86h50.77a2,2,0,0,0,2.05-1.86,1.76,1.76,0,0,0-.6-1.32,2.11,2.11,0,0,0-1.4-.54H213.11a2,2,0,0,0-.56.07A1.9,1.9,0,0,0,211.07,277.81Z" style="fill:#fff;opacity:0.2"></path><path d="M211.07,277.81a2,2,0,0,0,2,1.86H230.3a1.89,1.89,0,0,0,1.42-1.78,1.76,1.76,0,0,0,0-.33,1.84,1.84,0,0,0-.57-1,2.32,2.32,0,0,0-.44-.31l-.24-.11a2.24,2.24,0,0,0-.78-.13H212.55A1.9,1.9,0,0,0,211.07,277.81Z" style="fill:#263238"></path><path d="M196.46,194.65h5.19l5.83,63.27h-5.19a1.88,1.88,0,0,1-1.72-1.79l-5.5-59.69A1.51,1.51,0,0,1,196.46,194.65Z" style="fill:#A855F7"></path><path d="M196.46,194.65h5.19l5.83,63.27h-5.19a1.88,1.88,0,0,1-1.72-1.79l-5.5-59.69A1.51,1.51,0,0,1,196.46,194.65Z" style="opacity:0.30000000000000004"></path><path d="M204.48,257.92h77.76a1.51,1.51,0,0,0,1.39-1.79l-5.5-59.69a1.88,1.88,0,0,0-1.72-1.79H198.65a1.51,1.51,0,0,0-1.39,1.79l5.5,59.69A1.88,1.88,0,0,0,204.48,257.92Z" style="fill:#A855F7"></path><polygon points="206.83 245.23 277.45 245.23 273.53 200.46 202.91 200.46 206.83 245.23" style="fill:#A855F7"></polygon><path d="M207.8,248.73h69.59a3.23,3.23,0,0,0,3.27-3.57l-3.9-44.49a4,4,0,0,0-3.88-3.58h-69.6a3.23,3.23,0,0,0-3.26,3.58l3.89,44.49A4,4,0,0,0,207.8,248.73Z" style="fill:#263238"></path><polygon points="206.83 245.23 277.45 245.23 273.53 200.46 202.91 200.46 206.83 245.23" style="fill:#A855F7"></polygon><polygon points="206.83 245.23 277.45 245.23 273.53 200.46 202.91 200.46 206.83 245.23" style="fill:#fff;opacity:0.4"></polygon><path d="M230,202.91l3.41,39H207.48l-3.42-39H230m.92-1H203l.1,1.09,3.41,39,.08.92h27.89l-.09-1.09-3.41-39-.08-.91Z" style="fill:#A855F7"></path><polygon points="233.36 241.91 207.47 241.91 204.06 202.91 229.95 202.91 233.36 241.91" style="fill:#fff"></polygon><polygon points="215.09 214.83 207.21 214.83 206.35 204.93 214.22 204.93 215.09 214.83" style="fill:#A855F7"></polygon><g style="opacity:0.2"><path d="M207.28,204.93h-.93l.67,7.68h.25l0-.56h.67l0,.56h.26l-.67-7.68Zm-.32,4.12-.09-1.12h.67l.1,1.12Zm.7.25.1,1.12h-.68L207,209.3Zm-.82-1.62-.09-1.12h.67l.1,1.12Zm-.12-1.38-.09-1.11h.67l.1,1.11Zm.48,5.49-.09-1.11h.67l.1,1.11Z"></path></g><g style="opacity:0.2"><path d="M214,204.93H213l.67,7.68H214l-.05-.56h.68l0,.56h.26l-.67-7.68Zm-.31,4.12-.1-1.12h.68l.09,1.12Zm.7.25.09,1.12h-.67l-.1-1.12Zm-.82-1.62-.1-1.12h.68l.09,1.12Zm-.12-1.38-.1-1.11H214l.09,1.11Zm.48,5.49-.1-1.11h.68l.09,1.11Z"></path></g><polygon points="213.7 212.6 208.21 212.61 207.54 204.93 213.03 204.93 213.7 212.6" style="fill:#fff;opacity:0.2"></polygon><path d="M212.9,208.87a2,2,0,0,1-2.07,2.27,2.53,2.53,0,0,1-2.48-2.27,2.05,2.05,0,0,1,2.08-2.27A2.53,2.53,0,0,1,212.9,208.87Z" style="fill:#fff;opacity:0.2"></path><polygon points="209.91 207.68 211.91 209 210.14 210.31 209.91 207.68" style="fill:#fff"></polygon><polygon points="216.17 227.23 208.3 227.23 207.43 217.34 215.3 217.34 216.17 227.23" style="fill:#A855F7"></polygon><g style="opacity:0.2"><path d="M208.37,217.33h-.94l.67,7.68h.26l-.05-.56H209l0,.56h.25l-.67-7.68Zm-.32,4.12-.1-1.11h.68l.1,1.11Zm.7.26.1,1.12h-.68l-.1-1.12Zm-.82-1.63-.1-1.12h.68l.1,1.12Zm-.12-1.37-.1-1.12h.68l.1,1.12Zm.48,5.49-.1-1.12h.68l.1,1.12Z"></path></g><g style="opacity:0.2"><path d="M215.05,217.33h-.94l.68,7.68H215l0-.56h.68l.05.56H216l-.68-7.68Zm-.32,4.12-.1-1.11h.68l.1,1.11Zm.7.26.1,1.12h-.68l-.1-1.12Zm-.82-1.63-.1-1.12h.68l.1,1.12Zm-.12-1.37-.1-1.12h.68l.1,1.12Zm.48,5.49-.1-1.12h.68l.1,1.12Z"></path></g><polygon points="214.78 225 209.29 225.01 208.62 217.34 214.12 217.34 214.78 225" style="fill:#fff;opacity:0.2"></polygon><path d="M214,221.27a2.05,2.05,0,0,1-2.08,2.28,2.54,2.54,0,0,1-2.47-2.28,2,2,0,0,1,2.07-2.27A2.54,2.54,0,0,1,214,221.27Z" style="fill:#fff;opacity:0.2"></path><polygon points="211 220.09 213 221.4 211.23 222.72 211 220.09" style="fill:#fff"></polygon><polygon points="225.41 214.83 217.54 214.83 216.67 204.93 224.55 204.93 225.41 214.83" style="fill:#A855F7"></polygon><g style="opacity:0.2"><path d="M217.61,204.93h-.94l.68,7.68h.25l0-.56h.68l.05.56h.26l-.68-7.68Zm-.32,4.12-.1-1.12h.68l.1,1.12Zm.7.26.1,1.11h-.68l-.1-1.11Zm-.82-1.63-.1-1.12h.68l.1,1.12Zm-.12-1.38-.1-1.11h.68l.1,1.11Zm.48,5.5-.1-1.12h.68l.1,1.12Z"></path></g><g style="opacity:0.2"><path d="M224.29,204.93h-.93l.67,7.68h.25l0-.56h.67l.05.56h.26l-.67-7.68Zm-.32,4.12-.09-1.12h.67l.1,1.12Zm.7.26.1,1.11h-.68l-.09-1.11Zm-.82-1.63-.09-1.12h.67l.1,1.12Zm-.12-1.38-.09-1.11h.67l.1,1.11Zm.48,5.5-.09-1.12h.67l.1,1.12Z"></path></g><polygon points="224.03 212.6 218.53 212.61 217.86 204.93 223.36 204.93 224.03 212.6" style="fill:#fff;opacity:0.2"></polygon><path d="M223.23,208.87a2,2,0,0,1-2.08,2.27,2.53,2.53,0,0,1-2.47-2.27,2.05,2.05,0,0,1,2.08-2.27A2.53,2.53,0,0,1,223.23,208.87Z" style="fill:#fff;opacity:0.2"></path><polygon points="220.24 207.68 222.24 209 220.47 210.31 220.24 207.68" style="fill:#fff"></polygon><polygon points="217.26 239.64 209.38 239.64 208.52 229.74 216.39 229.74 217.26 239.64" style="fill:#A855F7"></polygon><g style="opacity:0.2"><path d="M209.45,229.74h-.93l.67,7.68h.25l0-.56h.67l.05.56h.26l-.67-7.68Zm-.32,4.12-.09-1.12h.67l.1,1.12Zm.7.25.1,1.12h-.68l-.09-1.12Zm-.82-1.63-.09-1.11h.67l.1,1.11Zm-.12-1.37L208.8,230h.67l.1,1.12Zm.48,5.49-.09-1.12H210l.1,1.12Z"></path></g><g style="opacity:0.2"><path d="M216.13,229.74h-.93l.67,7.68h.26l0-.56h.68l.05.56h.25l-.67-7.68Zm-.31,4.12-.1-1.12h.68l.09,1.12Zm.7.25.09,1.12h-.67l-.1-1.12Zm-.82-1.63-.1-1.11h.68l.09,1.11Zm-.12-1.37-.1-1.12h.68l.09,1.12Zm.48,5.49-.1-1.12h.68l.09,1.12Z"></path></g><polygon points="215.87 237.41 210.38 237.42 209.71 229.74 215.2 229.74 215.87 237.41" style="fill:#fff;opacity:0.2"></polygon><path d="M215.07,233.68A2,2,0,0,1,213,236a2.54,2.54,0,0,1-2.48-2.27,2.05,2.05,0,0,1,2.08-2.27A2.53,2.53,0,0,1,215.07,233.68Z" style="fill:#fff;opacity:0.2"></path><polygon points="212.08 232.49 214.09 233.8 212.31 235.12 212.08 232.49" style="fill:#fff"></polygon><polygon points="227.15 197.12 213.35 248.71 218 248.71 231.64 197.12 227.15 197.12" style="fill:#fff;opacity:0.1;isolation:isolate"></polygon><polygon points="234.31 197.12 220.52 248.71 229.72 248.71 243.36 197.12 234.31 197.12" style="fill:#fff;opacity:0.1;isolation:isolate"></polygon><polygon points="275.73 235.59 230.86 235.59 228.54 209.09 273.41 209.09 275.73 235.59" style="fill:#263238"></polygon><path d="M257.42,219.42a5,5,0,0,1-5.09,5.58,6.22,6.22,0,0,1-6.07-5.58,5,5,0,0,1,5.09-5.59A6.21,6.21,0,0,1,257.42,219.42Z" style="fill:#fff"></path><polygon points="254.9 219.62 250.02 216.94 250.49 222.31 254.9 219.62" style="fill:#263238"></polygon><polygon points="274.68 230.39 231 230.39 230.92 229.53 274.6 229.53 274.68 230.39" style="fill:#fff"></polygon><polygon points="255.48 230.39 231 230.39 230.92 229.53 255.41 229.53 255.48 230.39" style="fill:#A855F7"></polygon><polygon points="231.75 233.58 231.33 233.58 231.18 231.92 231.6 231.92 231.75 233.58" style="fill:#fff"></polygon><polygon points="232.48 233.58 232.06 233.58 231.92 231.92 232.34 231.92 232.48 233.58" style="fill:#fff"></polygon><polygon points="236.27 233.58 234.61 233.58 234.47 231.92 236.13 231.92 236.27 233.58" style="fill:#fff"></polygon><polygon points="238.47 232.75 239.83 231.92 239.97 233.58 238.47 232.75" style="fill:#fff"></polygon><polygon points="238.54 233.58 238.12 233.58 237.97 231.92 238.39 231.92 238.54 233.58" style="fill:#fff"></polygon><polygon points="243.11 232.75 241.61 231.92 241.75 233.58 243.11 232.75" style="fill:#fff"></polygon><polygon points="243.19 233.58 243.61 233.58 243.46 231.92 243.04 231.92 243.19 233.58" style="fill:#fff"></polygon><polygon points="246.19 231.89 245.45 232.89 247.11 232.89 246.19 231.89" style="fill:#fff"></polygon><polygon points="247.2 233.61 247.17 233.19 245.45 233.19 245.49 233.61 247.2 233.61" style="fill:#fff"></polygon><path d="M275,233.71h-3.2l-.17-2h3.19Zm-2.95-.27h2.65l-.12-1.41h-2.65Z" style="fill:#fff"></path><polygon points="269.44 233.71 268.79 233.71 268.74 233.14 269.01 233.12 269.04 233.44 269.44 233.44 269.44 233.71" style="fill:#fff"></polygon><polygon points="270.87 233.71 270.22 233.71 270.22 233.44 270.58 233.44 270.55 233.14 270.82 233.12 270.87 233.71" style="fill:#fff"></polygon><polygon points="270.49 232.38 270.45 232.03 270.08 232.03 270.08 231.76 270.7 231.76 270.75 232.36 270.49 232.38" style="fill:#fff"></polygon><polygon points="268.68 232.38 268.62 231.76 269.29 231.76 269.29 232.03 268.92 232.03 268.95 232.36 268.68 232.38" style="fill:#fff"></polygon><polygon points="236.92 209.09 241.99 209.09 235.98 235.59 230.85 235.59 236.92 209.09" style="fill:#fff;stroke:#263238;stroke-linecap:round;stroke-linejoin:round;opacity:0.1"></polygon><polygon points="262.14 235.59 268.21 209.09 273.29 209.09 267.28 235.59 262.14 235.59" style="fill:#fff;stroke:#263238;stroke-linecap:round;stroke-linejoin:round;opacity:0.1"></polygon><polyline points="273.69 212.31 269.75 229.53 269.55 230.39 269.21 231.89 268.89 233.27 268.36 235.59 269.68 235.59 270.52 231.89 270.86 230.39 271.05 229.53 274.04 216.36" style="fill:#fff;stroke:#263238;stroke-linecap:round;stroke-linejoin:round;opacity:0.1"></polyline><polygon points="273.41 209.09 228.54 209.09 228.33 206.69 273.2 206.69 273.41 209.09" style="fill:#A855F7"></polygon><path d="M231.72,207.91a.67.67,0,0,1-.68.74.81.81,0,0,1-.8-.74.67.67,0,0,1,.67-.74A.83.83,0,0,1,231.72,207.91Z" style="fill:#fff"></path><path d="M233.94,207.91a.67.67,0,0,1-.68.74.81.81,0,0,1-.8-.74.66.66,0,0,1,.67-.74A.83.83,0,0,1,233.94,207.91Z" style="fill:#fff"></path><path d="M236.15,207.91a.66.66,0,0,1-.67.74.83.83,0,0,1-.81-.74.67.67,0,0,1,.68-.74A.81.81,0,0,1,236.15,207.91Z" style="fill:#fff"></path><polygon points="189.12 279.7 163.47 279.7 156.78 203.11 182.42 203.11 189.12 279.7" style="fill:#A855F7"></polygon><polygon points="189.12 279.7 163.47 279.7 156.78 203.11 182.42 203.11 189.12 279.7" style="opacity:0.30000000000000004"></polygon><polygon points="191.64 279.7 165.99 279.7 159.29 203.11 184.94 203.11 191.64 279.7" style="fill:#A855F7"></polygon><path d="M172.94,209a8.8,8.8,0,0,0-8.91,9.76,10.88,10.88,0,0,0,10.62,9.76,8.8,8.8,0,0,0,8.9-9.76A10.86,10.86,0,0,0,172.94,209Z" style="opacity:0.5"></path><path d="M171.15,219.42a3.08,3.08,0,0,0,3,2.78,2.5,2.5,0,0,0,2.53-2.78,3.1,3.1,0,0,0-3-2.77A2.5,2.5,0,0,0,171.15,219.42Z" style="fill:#A855F7"></path><path d="M170.77,237.8a5.3,5.3,0,0,0,5.18,4.76,4.29,4.29,0,0,0,4.34-4.76,5.31,5.31,0,0,0-5.18-4.77h0A4.3,4.3,0,0,0,170.77,237.8Z" style="opacity:0.5"></path><path d="M172.46,250a4.57,4.57,0,0,0,4.47,4.12,3.71,3.71,0,0,0,3.76-4.12,4.59,4.59,0,0,0-4.48-4.12h0A3.71,3.71,0,0,0,172.46,250Z" style="opacity:0.5"></path><path d="M174.06,261.22a3.87,3.87,0,0,0,3.78,3.47,3.12,3.12,0,0,0,3.16-3.47,3.85,3.85,0,0,0-3.77-3.47h0A3.13,3.13,0,0,0,174.06,261.22Z" style="opacity:0.5"></path><path d="M175.49,270.52a3.15,3.15,0,0,0,3.08,2.82,2.54,2.54,0,0,0,2.58-2.82,3.14,3.14,0,0,0-3.08-2.83h0A2.55,2.55,0,0,0,175.49,270.52Z" style="opacity:0.5"></path><polygon points="319.67 279.6 294.02 279.6 287.32 203.01 312.97 203.01 319.67 279.6" style="fill:#A855F7"></polygon><polygon points="319.67 279.6 294.02 279.6 287.32 203.01 312.97 203.01 319.67 279.6" style="opacity:0.30000000000000004"></polygon><polygon points="322.19 279.6 296.54 279.6 289.84 203.01 315.49 203.01 322.19 279.6" style="fill:#A855F7"></polygon><path d="M303.49,208.9a8.8,8.8,0,0,0-8.91,9.76,10.88,10.88,0,0,0,10.62,9.76,8.8,8.8,0,0,0,8.9-9.76A10.86,10.86,0,0,0,303.49,208.9Z" style="opacity:0.5"></path><path d="M301.7,219.33a3.08,3.08,0,0,0,3,2.77,2.5,2.5,0,0,0,2.53-2.77,3.1,3.1,0,0,0-3-2.78A2.5,2.5,0,0,0,301.7,219.33Z" style="fill:#A855F7"></path><path d="M301.32,237.7a5.3,5.3,0,0,0,5.18,4.76,4.29,4.29,0,0,0,4.34-4.76,5.3,5.3,0,0,0-5.18-4.76h0A4.29,4.29,0,0,0,301.32,237.7Z" style="opacity:0.5"></path><path d="M303,249.89a4.57,4.57,0,0,0,4.47,4.12,3.71,3.71,0,0,0,3.76-4.12,4.58,4.58,0,0,0-4.48-4.11h0A3.7,3.7,0,0,0,303,249.89Z" style="opacity:0.5"></path><path d="M304.61,261.12a3.87,3.87,0,0,0,3.78,3.47,3.12,3.12,0,0,0,3.16-3.47,3.85,3.85,0,0,0-3.77-3.47h0A3.13,3.13,0,0,0,304.61,261.12Z" style="opacity:0.5"></path><path d="M306,270.42a3.16,3.16,0,0,0,3.08,2.83,2.55,2.55,0,0,0,2.58-2.83,3.15,3.15,0,0,0-3.08-2.83h0A2.56,2.56,0,0,0,306,270.42Z" style="opacity:0.5"></path></g><g id="freepik--video-files--inject-23"><path d="M115.28,180.29l-4.67-77.4c0-.1,0-.2,0-.3a3.72,3.72,0,0,1,3.75-3.68l206.19-.47a4.3,4.3,0,0,1,4.23,4l4.67,77.4c0,.1,0,.21,0,.31a3.71,3.71,0,0,1-3.75,3.67l-206.2.47A4.3,4.3,0,0,1,115.28,180.29Z" style="fill:#fff"></path><polygon points="191.84 99.3 135.24 99.3 135.2 98.87 191.79 98.73 191.84 99.3" style="fill:#fff"></polygon><path d="M329.45,180.13a3.72,3.72,0,0,1-3.75,3.67l-206.2.47a4.29,4.29,0,0,1-4.22-4l-4.67-77.4c0-.1,0-.21,0-.31a3.73,3.73,0,0,1,3.75-3.68l15.85,0-.32-3.69a5.48,5.48,0,0,1,5.55-6.08h44.43a6.76,6.76,0,0,1,6.61,6.08l.32,3.55,133.76-.3a4.32,4.32,0,0,1,4.22,4l4.67,77.39C329.45,179.93,329.45,180,329.45,180.13Z" style="fill:#fff"></path><path d="M179.86,89.1a6.76,6.76,0,0,1,6.61,6.08l.32,3.55,133.76-.3a4.32,4.32,0,0,1,4.22,4l4.67,77.39c0,.12,0,.22,0,.32a3.71,3.71,0,0,1-3.71,3.67h0l-206.2.47a4.29,4.29,0,0,1-4.22-4l-4.67-77.4c0-.1,0-.21,0-.31a3.73,3.73,0,0,1,3.73-3.68h0l15.85,0-.32-3.69a5.48,5.48,0,0,1,5.55-6.08h44.43m0-3.06H135.43a8.54,8.54,0,0,0-8.6,9.41l0,.37-12.52,0a6.8,6.8,0,0,0-6.8,6.71v.52l4.67,77.41a7.33,7.33,0,0,0,7.24,6.85l206.25-.47a6.79,6.79,0,0,0,6.8-6.7c0-.2,0-.38,0-.57l-4.67-77.36a7.35,7.35,0,0,0-7.23-6.86h-.06l-131,.29-.07-.75A9.76,9.76,0,0,0,179.86,86Z" style="fill:#A855F7"></path><rect x="121.72" y="81.77" width="45.8" height="57.59" style="fill:#A855F7"></rect><g style="opacity:0.2"><path d="M127.16,81.77h-5.44v44.67h1.49v-3.25h4v3.25h1.49V81.77Zm-4,24v-6.5h4v6.5Zm4,1.48v6.5h-4v-6.5Zm-4-9.47v-6.5h4v6.5Zm0-8v-6.5h4v6.5Zm0,32v-6.5h4v6.5Z"></path></g><g style="opacity:0.2"><path d="M166,81.77h-5.43v44.67h1.49v-3.25H166v3.25h1.49V81.77Zm-3.94,24v-6.5H166v6.5Zm3.94,1.48v6.5H162.1v-6.5Zm-3.94-9.47v-6.5H166v6.5Zm0-8v-6.5H166v6.5Zm0,32v-6.5H166v6.5Z"></path></g><polygon points="160.61 126.38 128.65 126.44 128.65 81.77 160.61 81.77 160.61 126.38" style="fill:#fff;opacity:0.2"></polygon><path d="M157.85,104.69a13.23,13.23,0,1,1-13.22-13.22A13.22,13.22,0,0,1,157.85,104.69Z" style="fill:#fff;opacity:0.2"></path><polygon points="141.07 97.78 152.05 105.42 141.07 113.07 141.07 97.78" style="fill:#fff"></polygon><polygon points="152.05 105.42 151.21 106 141.06 98.94 141.06 97.77 152.05 105.42" style="fill:#A855F7"></polygon><path d="M139.24,136.86v-4.57L137,136.06h-.8L134,132.39v4.47h-1.65v-7.62h1.45l2.86,4.74,2.8-4.74h1.45l0,7.62Z" style="fill:#fff"></path><path d="M145.47,133.87l-1,1.07v1.92H142.7v-7.62h1.75v3.56l3.37-3.56h2l-3.16,3.4,3.35,4.22h-2.06Z" style="fill:#fff"></path><path d="M157.64,129.24l-3.3,7.62H152.6l-3.29-7.62h1.9l2.32,5.45,2.35-5.45Z" style="fill:#fff"></path><rect x="171.65" y="94.6" width="45.8" height="57.59" style="fill:#A855F7"></rect><g style="opacity:0.2"><path d="M177.09,94.6h-5.44v44.67h1.49V136h4v3.25h1.49V94.6Zm-4,24v-6.5h4v6.5Zm4,1.49v6.5h-4v-6.5Zm-4-9.48v-6.5h4v6.5Zm0-8v-6.5h4v6.5Zm0,31.94V128h4v6.5Z"></path></g><g style="opacity:0.2"><path d="M216,94.6h-5.43v44.67H212V136H216v3.25h1.49V94.6Zm-3.94,24v-6.5H216v6.5Zm3.94,1.49v6.5H212v-6.5ZM212,110.57v-6.5H216v6.5Zm0-8v-6.5H216v6.5Zm0,31.94V128H216v6.5Z"></path></g><polygon points="210.54 139.22 178.58 139.27 178.58 94.6 210.54 94.6 210.54 139.22" style="fill:#fff;opacity:0.2"></polygon><path d="M207.78,117.53a13.23,13.23,0,1,1-13.22-13.23A13.22,13.22,0,0,1,207.78,117.53Z" style="fill:#fff;opacity:0.2"></path><polygon points="191 110.61 201.98 118.26 191 125.9 191 110.61" style="fill:#fff"></polygon><polygon points="201.98 118.25 201.15 118.83 191 111.77 191 110.61 201.98 118.25" style="fill:#A855F7"></polygon><path d="M189.93,148.07h-3.54l-.67,1.63h-1.81l3.4-7.62h1.74l3.41,7.62h-1.85Zm-.55-1.34-1.21-2.92L187,146.73Z" style="fill:#fff"></path><path d="M200.16,142.08l-3.3,7.62h-1.74l-3.29-7.62h1.91l2.31,5.44,2.36-5.44Z" style="fill:#fff"></path><path d="M200.79,142.08h1.76v7.62h-1.76Z" style="fill:#fff"></path><rect x="221.37" y="72.92" width="45.8" height="57.59" style="fill:#A855F7"></rect><g style="opacity:0.2"><path d="M226.8,72.92h-5.43v44.67h1.49v-3.25h3.94v3.25h1.49V72.92Zm-3.94,24v-6.5h3.94v6.5Zm3.94,1.48v6.5h-3.94v-6.5Zm-3.94-9.47v-6.5h3.94v6.5Zm0-8V74.4h3.94v6.5Zm0,31.95v-6.5h3.94v6.5Z"></path></g><g style="opacity:0.2"><path d="M265.68,72.92h-5.43v44.67h1.49v-3.25h3.94v3.25h1.49V72.92Zm-3.94,24v-6.5h3.94v6.5Zm3.94,1.48v6.5h-3.94v-6.5Zm-3.94-9.47v-6.5h3.94v6.5Zm0-8V74.4h3.94v6.5Zm0,31.95v-6.5h3.94v6.5Z"></path></g><polygon points="260.25 117.53 228.29 117.59 228.29 72.92 260.25 72.92 260.25 117.53" style="fill:#fff;opacity:0.2"></polygon><path d="M257.49,95.84a13.22,13.22,0,1,1-13.22-13.22A13.22,13.22,0,0,1,257.49,95.84Z" style="fill:#fff;opacity:0.2"></path><polygon points="240.71 88.93 251.7 96.57 240.71 104.22 240.71 88.93" style="fill:#fff"></polygon><polygon points="251.7 96.57 250.86 97.15 240.71 90.09 240.71 88.93 251.7 96.57" style="fill:#A855F7"></polygon><path d="M238.88,128v-4.58l-2.24,3.77h-.79l-2.24-3.67V128H232V120.4h1.46l2.85,4.73,2.81-4.73h1.45l0,7.62Z" style="fill:#fff"></path><path d="M249,123.16c0,1.7-1.28,2.75-3.31,2.75H244.1V128h-1.76V120.4h3.3C247.67,120.4,249,121.45,249,123.16Zm-1.79,0c0-.84-.54-1.33-1.62-1.33H244.1v2.65h1.44C246.62,124.48,247.16,124,247.16,123.16Z" style="fill:#fff"></path><path d="M256.47,126.42h-1.24V128h-1.72v-1.6h-4.1v-1.19L253,120.4h1.85L251.52,125h2v-1.43h1.66V125h1.24Z" style="fill:#fff"></path><rect x="270.96" y="82.81" width="45.8" height="57.59" style="fill:#A855F7"></rect><g style="opacity:0.2"><path d="M276.4,82.81H271v44.67h1.49v-3.24h3.95v3.24h1.49V82.81Zm-3.95,24v-6.5h3.95v6.5Zm3.95,1.49v6.5h-3.95v-6.5Zm-3.95-9.48v-6.5h3.95v6.5Zm0-8V84.3h3.95v6.5Zm0,32v-6.5h3.95v6.5Z"></path></g><g style="opacity:0.2"><path d="M315.28,82.81h-5.43v44.67h1.49v-3.24h3.94v3.24h1.49V82.81Zm-3.94,24v-6.5h3.94v6.5Zm3.94,1.49v6.5h-3.94v-6.5Zm-3.94-9.48v-6.5h3.94v6.5Zm0-8V84.3h3.94v6.5Zm0,32v-6.5h3.94v6.5Z"></path></g><polygon points="309.85 127.43 277.89 127.48 277.89 82.81 309.85 82.81 309.85 127.43" style="fill:#fff;opacity:0.2"></polygon><circle cx="293.87" cy="105.74" r="13.22" style="fill:#fff;opacity:0.2"></circle><polygon points="290.31 98.82 301.29 106.47 290.31 114.11 290.31 98.82" style="fill:#fff"></polygon><polygon points="301.3 106.47 300.46 107.05 290.32 99.99 290.32 98.83 301.3 106.47" style="fill:#A855F7"></polygon><path d="M288.48,137.91v-4.57l-2.24,3.77h-.8l-2.23-3.67v4.47h-1.66v-7.62H283l2.85,4.74,2.81-4.74h1.45l0,7.62Z" style="fill:#fff"></path><path d="M291.46,134.1a4.17,4.17,0,1,1,4.16,3.94A3.94,3.94,0,0,1,291.46,134.1Zm6.55,0a2.39,2.39,0,1,0-2.39,2.44A2.32,2.32,0,0,0,298,134.1Z" style="fill:#fff"></path><path d="M308.19,130.29l-3.3,7.62h-1.74l-3.28-7.62h1.9l2.32,5.44,2.35-5.44Z" style="fill:#fff"></path><path d="M233.42,178.27H218.54a5.85,5.85,0,0,1-5.7-5.24l-.11-1.33a4.73,4.73,0,0,1,4.78-5.24h14.88Z" style="fill:#A855F7"></path><polygon points="242.45 177.33 233.9 173.09 233.69 170.69 241.5 166.46 242.45 177.33" style="fill:#A855F7"></polygon><polygon points="243.58 177.33 242.45 177.33 241.5 166.46 242.63 166.46 243.58 177.33" style="fill:#A855F7"></polygon><path d="M222.35,161.39a3.71,3.71,0,0,1-3.76,4.11,4.57,4.57,0,0,1-4.47-4.11,3.71,3.71,0,0,1,3.75-4.12A4.58,4.58,0,0,1,222.35,161.39Z" style="fill:#A855F7"></path><path d="M230.59,161.39a3.72,3.72,0,0,1-3.76,4.11,4.58,4.58,0,0,1-4.48-4.11,3.71,3.71,0,0,1,3.76-4.12A4.59,4.59,0,0,1,230.59,161.39Z" style="fill:#A855F7"></path></g><g id="freepik--Character--inject-23"><g id="freepik--character--inject-23"><path d="M301.74,203.57a22.26,22.26,0,0,1-2.35,5.47,3.41,3.41,0,0,0,2.89.17Z" style="fill:#a02724"></path><path d="M323.85,209.37l-4.75,5-6.5,6.77a7.69,7.69,0,0,1,1.13,2.59c.58,2,1.08,3.51-3.32,5.49a2.66,2.66,0,0,0-1.65,2.34c0,1.25,1,2.61,5.34,2.69a19.69,19.69,0,0,0,11.67-3.89c1.66-1.18,1.5-2.25.46-4C323.17,221.53,323.25,214.74,323.85,209.37Z" style="fill:#ff8b7b"></path><path d="M300.2,203.24c-.06.67.18,1.24.53,1.26s.67-.49.72-1.16-.18-1.23-.53-1.26S300.25,202.57,300.2,203.24Z" style="fill:#263238"></path><path d="M300.79,199.5a4.48,4.48,0,0,1,4,1.56" style="fill:none;stroke:#263238;stroke-linecap:round;stroke-linejoin:round"></path><path d="M301.69,212.3a12.12,12.12,0,0,0,7.1,8,11.07,11.07,0,0,0,3.67.83,10.35,10.35,0,0,0,8.21-3.34c4.13-4.39,3.86-9.34,4.13-17.76a11.72,11.72,0,0,0-16.22-11.29C300.43,192.23,299.65,204.76,301.69,212.3Z" style="fill:#ff8b7b"></path><path d="M308.79,220.34a11.07,11.07,0,0,0,3.67.83l.14-.06-.8-1.56S311.31,220.88,308.79,220.34Z" style="opacity:0.2"></path><path d="M328.16,205.52c-.9,3-2.13,6.15-4.43,8.33-.85.81-8.19,1.56-8.19,1.56-.35-2.48-4.9-10.46-6.89-13-.28,1.24-.74,6.59-1.16,7.77-.83,0-2.14-1.28-2.14-1.28a19.84,19.84,0,0,0,1-10.89l-.29-1.51c0,.32-4.85,2.6-7.21-1.81-8.81-16.49,13.79-13.56,20.06-7.13a6.21,6.21,0,0,1,6.39.8,10.19,10.19,0,0,1,3.51,5.66A21.74,21.74,0,0,1,328.16,205.52Z" style="fill:#263238"></path></g><path d="M321.5,183.85a2.81,2.81,0,0,0-2.71,1.82c-.25.65-.5,2.22.23,2.55A23.62,23.62,0,0,1,321.5,183.85Z" style="fill:#263238"></path><path d="M314.28,204.56a7.73,7.73,0,0,1-3,4.64c-2,1.42-4-.6-3.94-3,0-2.14,1.43-5.11,3.67-5.59S314.74,202.26,314.28,204.56Z" style="fill:#ff8b7b"></path><polygon points="274.64 399.39 266.47 396.96 268.95 377.66 279 381.24 274.64 399.39" style="fill:#ff8b7b"></polygon><polygon points="280.13 375.86 269.52 371.91 267.93 385.79 277.34 388.43 280.13 375.86" style="opacity:0.2;isolation:isolate"></polygon><path d="M265.78,395.58l9.31,2.52a.72.72,0,0,1,.48.84l-1.41,8.86a1.57,1.57,0,0,1-1.83,1.35c-3.22-.94-4.73-1.58-8.82-2.69-2.52-.68-8.28-2.32-11.8-3s-2.81-4.77-1.26-4.87c7-.44,11-1.27,13.77-2.82A2.09,2.09,0,0,1,265.78,395.58Z" style="fill:#263238"></path><path d="M261.43,396.9a10.57,10.57,0,0,0,2.24.22.16.16,0,0,0,.17-.11.2.2,0,0,0,0-.21c-.22-.25-2.2-2.41-3.3-2.26a.71.71,0,0,0-.58.43,1.12,1.12,0,0,0,0,1.13A2.37,2.37,0,0,0,261.43,396.9Zm1.83-.18c-1.56-.11-2.65-.36-2.94-.85a.67.67,0,0,1,.05-.71.35.35,0,0,1,.27-.23C261.22,394.84,262.44,395.88,263.26,396.72Z" style="fill:#A855F7"></path><path d="M263.68,397.12h.09a.2.2,0,0,0,.14-.14c0-.1.79-2.44.14-3.45a1,1,0,0,0-.75-.47.75.75,0,0,0-.84.42c-.41.86.41,2.89,1.12,3.58A.14.14,0,0,0,263.68,397.12Zm-.33-3.64a.61.61,0,0,1,.37.28,4.35,4.35,0,0,1-.09,2.76,4,4,0,0,1-.81-2.86c0-.11.14-.23.43-.19Z" style="fill:#A855F7"></path><path d="M316,294.79s-45.71-.15-47.19,25.09c-1.45,17.74-2.37,25-1.49,63.66l12.17.67s12.38-41.83,10.71-58.44c13.64,0,44.86,1.19,49.39-11.11a54.62,54.62,0,0,0,3.24-19.49Z" style="fill:#A855F7"></path><g style="opacity:0.30000000000000004"><path d="M316,294.79s-45.71-.15-47.19,25.09c-1.45,17.74-2.37,25-1.49,63.66l12.17.67s12.38-41.83,10.71-58.44c13.64,0,44.86,1.19,49.39-11.11a54.62,54.62,0,0,0,3.24-19.49Z"></path></g><polygon points="281.46 386.57 265.56 383.85 265.82 376.81 282.28 380.47 281.46 386.57" style="fill:#A855F7"></polygon><polygon points="243.09 401.92 235.39 398.27 240.78 379.58 250.17 384.64 243.09 401.92" style="fill:#ff8b7b"></polygon><polygon points="252.1 379.5 242.23 373.98 238.53 387.46 247.43 391.5 252.1 379.5" style="opacity:0.2;isolation:isolate"></polygon><path d="M234.92,396.8l8.81,3.92a.71.71,0,0,1,.35.89l-2.75,8.55a1.58,1.58,0,0,1-2,1.06c-3-1.43-4.44-2.29-8.31-4-2.39-1.06-7.82-3.56-11.21-4.73s-2.05-5.15-.5-5c6.95.64,11,.42,14-.68A2.1,2.1,0,0,1,234.92,396.8Z" style="fill:#263238"></path><path d="M230.42,397.44a10.81,10.81,0,0,0,2.17.56.18.18,0,0,0,.2-.08.2.2,0,0,0,0-.21c-.17-.28-1.8-2.71-2.91-2.73a.7.7,0,0,0-.65.34,1.14,1.14,0,0,0-.18,1.11A2.32,2.32,0,0,0,230.42,397.44Zm1.83.11c-1.52-.35-2.56-.77-2.77-1.29a.71.71,0,0,1,.15-.7.4.4,0,0,1,.31-.19C230.53,395.38,231.57,396.58,232.25,397.55Z" style="fill:#A855F7"></path><path d="M232.6,398l.09,0a.26.26,0,0,0,.17-.12c0-.1,1.15-2.29.66-3.38a1,1,0,0,0-.67-.58.76.76,0,0,0-.9.28c-.53.79,0,2.92.57,3.71A.18.18,0,0,0,232.6,398Zm.23-3.65a.59.59,0,0,1,.33.33,4.38,4.38,0,0,1-.51,2.72,4,4,0,0,1-.37-3c0-.11.17-.2.46-.12Z" style="fill:#A855F7"></path><path d="M301.63,294.79c-.32,0-50.91-4.93-54.3,23.84-5.37,35.22-8.75,64.91-8.75,64.91l10.65,5.28s18.56-37.59,18.28-61.16c14.83-4.26,53.2,2.89,57.74-9.4,3.71-10.06,1.7-23.47,1.7-23.47Z" style="fill:#A855F7"></path><path d="M301.63,294.79c-.32,0-50.91-4.93-54.3,23.84-5.37,35.22-8.75,64.91-8.75,64.91l10.65,5.28s18.56-37.59,18.28-61.16c14.83-4.26,53.2,2.89,57.74-9.4,3.71-10.06,1.7-23.47,1.7-23.47Z" style="opacity:0.30000000000000004"></path><polygon points="250.94 390.35 236.65 383.92 237.8 378.07 252.87 383.27 250.94 390.35" style="fill:#A855F7"></polygon><path d="M326.09,232.3c1.15,3.16,2.05,6.19,3,9.33s1.65,6.27,2.33,9.47,1.22,6.46,1.6,9.82a50.28,50.28,0,0,1,.15,10.55,21.4,21.4,0,0,1-1.45,6,13.76,13.76,0,0,1-1.9,3.28,10.68,10.68,0,0,1-1.53,1.55l-.45.37c-.24.17-.51.36-.77.51a7.36,7.36,0,0,1-1.35.59,9.8,9.8,0,0,1-2.13.48,12.46,12.46,0,0,1-1.73.1,24,24,0,0,1-2.93-.25,40.74,40.74,0,0,1-5.12-1,98,98,0,0,1-18.19-7l1.86-5.17c6,1.27,12.2,2.6,18.05,3.38,1.47.13,2.88.32,4.21.37a13.18,13.18,0,0,0,1.78-.06c.49,0,.92-.18.78-.19l-.29.11a1.67,1.67,0,0,0-.28.18h0l.1-.15a4.34,4.34,0,0,0,.36-.83,13.31,13.31,0,0,0,.54-3.19,41.6,41.6,0,0,0-.5-8.27c-.4-2.94-1-5.82-1.67-8.76s-1.42-5.88-2.26-8.82-1.75-5.9-2.65-8.68Z" style="fill:#ff8b7b"></path><path d="M300,272.58l-6.06-4.15-3.81,6.62s7.18,3.76,8.92,2Z" style="fill:#ff8b7b"></path><polygon points="288.63 269.28 285.31 273.64 290.1 275 293.91 268.38 288.63 269.28" style="fill:#ff8b7b"></polygon><path d="M262.65,266.75l-8.88-1-2.55,9.76s10.15.09,11.75-2.82Z" style="fill:#ff8b7b"></path><path d="M247.11,269.36l-1.52,3.74a1.71,1.71,0,0,0,1.57,2.36l4.06,0,2.55-9.76-5.8,2.71A1.78,1.78,0,0,0,247.11,269.36Z" style="fill:#ff8b7b"></path><path d="M339.84,230.29c-.73-1.93-4.1-3.86-6.18-3.86h-1.37A74.53,74.53,0,0,0,324,227a147.1,147.1,0,0,0-16.41,2.76,69.29,69.29,0,0,0-6.8,2.2l-.07,0a5.18,5.18,0,0,0-3.22,5.53c.85,6.21,2.49,18.84,3.47,31.41.77,9.81.45,19.55.7,26.25h41.17c1.42-8.05,1.19-15.07,1.31-29.6C344.24,256.81,342.82,238.23,339.84,230.29Z" style="fill:#A855F7"></path><path d="M339.84,230.29c-.73-1.93-4.1-3.86-6.18-3.86h-1.37A74.53,74.53,0,0,0,324,227a147.1,147.1,0,0,0-16.41,2.76,69.29,69.29,0,0,0-6.8,2.2l-.07,0a5.18,5.18,0,0,0-3.22,5.53c.85,6.21,2.49,18.84,3.47,31.41.77,9.81.45,19.55.7,26.25h41.17c1.42-8.05,1.19-15.07,1.31-29.6C344.24,256.81,342.82,238.23,339.84,230.29Z" style="fill:#fff;opacity:0.8"></path><path d="M304.25,232.43a6.47,6.47,0,0,1,3.76,8.39c-2.94,7.61-7.88,19.68-10.06,23.92-.83,1.51-1.66,3-2.6,4.53-.48.76-1,1.51-1.57,2.29-.32.4-.56.76-.93,1.17l-.53.61-.3.34a8,8,0,0,1-3,2,14.23,14.23,0,0,1-1.82.57,19,19,0,0,1-3.09.41,40.1,40.1,0,0,1-5.37,0,97.58,97.58,0,0,1-19.54-3.65l-.68-6.75c6.29.18,12.72.39,18.72.09,1.41-.08,2.82-.23,4.22-.45a10.62,10.62,0,0,0,1.66-.42,2.55,2.55,0,0,0,.5-.24c.05,0,0-.07-.25.12a1.64,1.64,0,0,0-.25.21l.09-.12.24-.32c.16-.19.34-.5.52-.75.35-.53.71-1.11,1.06-1.73.69-1.22,1.35-2.56,2-3.92,1.3-2.72,2.48-5.59,3.63-8.48.81-2.06,3.2-8.3,5.22-13.87a6.47,6.47,0,0,1,8.37-3.87Z" style="fill:#A855F7"></path><path d="M300.1,259c.31,3.7.2,2.5.54,6.38,10.05-15.53,6.73-25.78,6.73-25.78Z" style="opacity:0.2;isolation:isolate"></path><path d="M304.25,232.43a6.47,6.47,0,0,1,3.76,8.39c-2.94,7.61-7.88,19.68-10.06,23.92-.83,1.51-1.66,3-2.6,4.53-.48.76-1,1.51-1.57,2.29-.32.4-.56.76-.93,1.17l-.53.61-.3.34a8,8,0,0,1-3,2,14.23,14.23,0,0,1-1.82.57,19,19,0,0,1-3.09.41,40.1,40.1,0,0,1-5.37,0,97.58,97.58,0,0,1-19.54-3.65l-.68-6.75c6.29.18,12.72.39,18.72.09,1.41-.08,2.82-.23,4.22-.45a10.62,10.62,0,0,0,1.66-.42,2.55,2.55,0,0,0,.5-.24c.05,0,0-.07-.25.12a1.64,1.64,0,0,0-.25.21l.09-.12.24-.32c.16-.19.34-.5.52-.75.35-.53.71-1.11,1.06-1.73.69-1.22,1.35-2.56,2-3.92,1.3-2.72,2.48-5.59,3.63-8.48.81-2.06,3.2-8.3,5.22-13.87a6.47,6.47,0,0,1,8.37-3.87Z" style="fill:#fff;opacity:0.8"></path><path d="M290.74,410.14a4.2,4.2,0,1,1-4.2-4.2,4.2,4.2,0,0,1,4.2,4.2Z" style="fill:#263238"></path><path d="M352.39,410.14a4.2,4.2,0,1,0,4.2-4.2,4.2,4.2,0,0,0-4.2,4.2Z" style="fill:#263238"></path><path d="M316,408.8a4.2,4.2,0,1,0,4.2-4.2,4.2,4.2,0,0,0-4.2,4.2Z" style="fill:#263238"></path><path d="M365.74,404.5a2.07,2.07,0,0,1-2.07,1.65l-43.78-.6-41,.92a2,2,0,0,1-.45-4l22.39-4.35a37.72,37.72,0,0,1,7-.66h24.06a37.7,37.7,0,0,1,7,.66l25.16,4A2,2,0,0,1,365.74,404.5Z" style="fill:#263238"></path><rect x="312.44" y="360.9" width="14.89" height="42.86" style="fill:#263238"></rect><rect x="314.58" y="333.75" width="10.62" height="27.37" style="fill:#263238"></rect><polygon points="314.58 338.82 325.2 341.5 325.2 333.75 314.58 333.75 314.58 338.82" style="opacity:0.2;isolation:isolate"></polygon><rect x="275.35" y="294.64" width="5.39" height="23.02" style="fill:#263238"></rect><rect x="275.35" y="294.64" width="5.39" height="23.02" style="fill:#263238"></rect><path d="M316.51,243a11.85,11.85,0,0,0-.15,1.89v88.81h-8.57V244.93a1.48,1.48,0,0,1,0-.21Z" style="fill:#263238"></path><path d="M366.41,333.64v.1H365A11.51,11.51,0,0,0,366.41,333.64Z" style="fill:#263238"></path><path d="M375,242.47l-.63-10.55a12.6,12.6,0,0,0-3.48-7.95l-6.73-7-3.46-17.58a5.83,5.83,0,0,0-5.72-4.72H339.47a5.83,5.83,0,0,0-5.52,4l-6.49,18.91-12.38,7.62a12.61,12.61,0,0,0-5.86,8.87l-1.6,10.77.18,0,8.71-1.68a11.85,11.85,0,0,0-.15,1.89v88.81H365a11.51,11.51,0,0,0,1.45-.1h0a10,10,0,0,0,8.56-9.92V244.15a14,14,0,0,0-.11-1.71Zm-41.09-6.7-15,1.43-.66.06,1.61-6.86,10.05-4.85,3.34-1.61.66,1.61.11.27.61,1.48Zm29.71.17h0l-1.89-.47c-.07-.59-.15-1.19-.22-1.78-.42-3.29-.8-6.39-.8-6.39l.15-1.08.31-2.28,7.15,6.46.1,1.53.37,5.33Z" style="fill:#263238"></path><path d="M316.36,314.39v19.35h-56.5a6.93,6.93,0,0,1-6-10.48,18,18,0,0,1,15.52-8.87Z" style="fill:#263238"></path><path d="M296.37,301.67a55.59,55.59,0,0,0-36.68,0,5.21,5.21,0,0,1-6.45-2.46h0c-1.1-2.33.37-5.34,3.37-6.39a64.83,64.83,0,0,1,42.82,0c3,1,4.47,4.06,3.37,6.39h0A5.22,5.22,0,0,1,296.37,301.67Z" style="fill:#263238"></path><path d="M296.37,301.67a55.59,55.59,0,0,0-36.68,0,5.21,5.21,0,0,1-6.45-2.46h0c-1.1-2.33.37-5.34,3.37-6.39a64.83,64.83,0,0,1,42.82,0c3,1,4.47,4.06,3.37,6.39h0A5.22,5.22,0,0,1,296.37,301.67Z" style="fill:#263238;opacity:0.4"></path></g></svg>